<?xml version="1.0" encoding="UTF-8"?>
<svg version="1.1" xmlns="http://www.w3.org/2000/svg" width="512" height="512">
<path d="M0 0 C1.01790619 0.00215515 2.03581238 0.0043103 3.08456421 0.00653076 C17.69363523 0.05620146 32.02575853 0.30709809 46.375 3.3125 C47.34985352 3.51117676 48.32470703 3.70985352 49.32910156 3.91455078 C97.7109774 14.03517194 141.69928269 35.9516877 177.375 70.3125 C178.3640332 71.26068604 178.3640332 71.26068604 179.37304688 72.22802734 C188.86130305 81.37247479 197.6012044 90.66984009 205.375 101.3125 C206.23306152 102.46355017 207.09113451 103.61459177 207.94921875 104.765625 C213.98736829 112.95680614 219.34595521 121.47054105 224.375 130.3125 C224.73948242 130.94430176 225.10396484 131.57610352 225.47949219 132.22705078 C246.9740278 169.78083122 256.85128069 212.44304987 256.6875 255.4375 C256.68476578 256.92734909 256.68476578 256.92734909 256.68197632 258.44729614 C256.63724558 272.92067811 256.26423753 287.08426256 253.375 301.3125 C253.19807617 302.21291016 253.02115234 303.11332031 252.83886719 304.04101562 C251.53990726 310.5156242 250.02880732 316.91992152 248.375 323.3125 C248.16536621 324.13250488 247.95573242 324.95250977 247.73974609 325.79736328 C238.9514504 359.40126223 222.16229458 390.40830829 200.375 417.3125 C199.93494629 417.85696777 199.49489258 418.40143555 199.04150391 418.96240234 C187.56325137 433.03423929 174.79780936 446.24930647 160.375 457.3125 C159.44429688 458.07175781 158.51359375 458.83101563 157.5546875 459.61328125 C117.61236169 491.6386499 63.71893213 512.26275169 12.328125 512.515625 C11.39562927 512.52132507 10.46313354 512.52702515 9.50238037 512.53289795 C7.53594065 512.54228439 5.56948565 512.5488564 3.60302734 512.55273438 C0.6738534 512.5623398 -2.25458674 512.59338313 -5.18359375 512.625 C-18.56057076 512.70002464 -31.43568295 511.51848791 -44.625 509.3125 C-45.76211426 509.12429688 -46.89922852 508.93609375 -48.07080078 508.7421875 C-91.33754743 500.97344323 -132.3893125 480.98226238 -165.625 452.3125 C-166.37007813 451.67828125 -167.11515625 451.0440625 -167.8828125 450.390625 C-181.38779833 438.57948485 -194.05918743 425.82889772 -204.625 411.3125 C-205.48149066 410.16255169 -206.33826433 409.01281411 -207.1953125 407.86328125 C-213.23534209 399.67315742 -218.61867614 391.16870382 -223.625 382.3125 C-224.0271875 381.60528809 -224.429375 380.89807617 -224.84375 380.16943359 C-237.8691741 357.03404164 -246.61801461 331.86287591 -251.9375 305.875 C-252.08485596 305.15610596 -252.23221191 304.43721191 -252.3840332 303.6965332 C-255.35789088 288.05024391 -255.99800362 272.57681954 -255.9375 256.6875 C-255.93534485 255.66959381 -255.9331897 254.65168762 -255.93096924 253.60293579 C-255.88129854 238.99386477 -255.63040191 224.66174147 -252.625 210.3125 C-252.42632324 209.33764648 -252.22764648 208.36279297 -252.02294922 207.35839844 C-241.90232806 158.9765226 -219.9858123 114.98821731 -185.625 79.3125 C-184.99287598 78.65314453 -184.36075195 77.99378906 -183.70947266 77.31445312 C-174.56502521 67.82619695 -165.26765991 59.0862956 -154.625 51.3125 C-153.47394983 50.45443848 -152.32290823 49.59636549 -151.171875 48.73828125 C-142.98224019 42.70072604 -134.47961724 37.31792698 -125.625 32.3125 C-124.91778809 31.9103125 -124.21057617 31.508125 -123.48193359 31.09375 C-100.34654164 18.0683259 -75.17537591 9.31948539 -49.1875 4 C-48.46860596 3.85264404 -47.74971191 3.70528809 -47.0090332 3.5534668 C-31.36274391 0.57960912 -15.88931954 -0.06050362 0 0 Z M-148.625 65.3125 C-149.49511719 65.98667969 -150.36523438 66.66085938 -151.26171875 67.35546875 C-157.03135627 71.95220537 -162.4768203 76.85069331 -167.875 81.875 C-168.53661133 82.48811035 -169.19822266 83.1012207 -169.87988281 83.73291016 C-174.43464222 88.0194068 -178.58425986 92.54165544 -182.625 97.3125 C-183.13869141 97.9094165 -183.65238281 98.50633301 -184.18164062 99.12133789 C-226.90696342 149.06172729 -245.00516607 212.03678419 -241.42285156 276.97705078 C-238.24093525 317.65154704 -223.58431158 360.10904459 -199.625 393.3125 C-198.58085937 394.7665625 -198.58085937 394.7665625 -197.515625 396.25 C-186.21318409 411.64055783 -173.47742813 427.2244832 -158.625 439.3125 C-157.51099877 440.26087368 -156.39779919 441.21018938 -155.28515625 442.16015625 C-118.94976705 472.83507094 -74.60267925 491.11454532 -27.625 497.3125 C-26.86316406 497.415625 -26.10132813 497.51875 -25.31640625 497.625 C30.45069 504.21908233 91.72110104 489.25593846 137.375 456.3125 C138.8290625 455.26835938 138.8290625 455.26835938 140.3125 454.203125 C155.37057059 443.14485441 170.44048092 430.73770132 182.375 416.3125 C183.63570313 414.86617188 183.63570313 414.86617188 184.921875 413.390625 C191.31666877 406.03767554 197.03150641 398.47672255 202.375 390.3125 C203.00664062 389.35601562 203.63828125 388.39953125 204.2890625 387.4140625 C229.2905076 348.21426586 242.58695705 303.59478353 242.625 257.125 C242.62567474 256.37850189 242.62634949 255.63200378 242.62704468 254.86288452 C242.60798708 241.49852001 241.71711973 228.49153395 239.375 215.3125 C239.20871094 214.36938965 239.04242188 213.4262793 238.87109375 212.45458984 C230.56207075 167.07039849 209.35424842 126.45827892 178.36328125 92.5234375 C176.7789618 90.76169917 175.28109002 88.98161213 173.8125 87.125 C171.27465666 84.19671922 168.58970196 81.77469166 165.640625 79.2734375 C164.07661608 77.91976082 162.54676524 76.52595491 161.046875 75.1015625 C148.60195173 63.30560762 134.31251615 53.66675786 119.375 45.3125 C118.3228833 44.71574463 118.3228833 44.71574463 117.24951172 44.10693359 C89.67179349 28.57590924 59.69246893 19.44433998 28.375 15.3125 C27.61316406 15.209375 26.85132813 15.10625 26.06640625 15 C-36.04757471 7.65544144 -99.57169806 27.29126597 -148.625 65.3125 Z " fill="#BF4662" transform="translate(255.625,-0.3125)"/>
<path d="M0 0 C12.1699825 11.37881729 18.55830963 26.80403803 19.16796875 43.28515625 C18.84190464 60.56655402 12.14671415 75.13529591 -0.20703125 87.16015625 C-8.83733969 95.05204258 -20.26644546 101.38277734 -32.20703125 101.16015625 C-27.45484861 121.89894409 -19.7157198 139.93304775 -1.20703125 152.16015625 C10.13048434 158.71218561 22.09067782 163.29352485 35.33590698 163.28041077 C36.95117531 163.28247276 36.95117531 163.28247276 38.59907532 163.28457642 C39.76504745 163.28098114 40.93101959 163.27738586 42.13232422 163.27368164 C43.37190384 163.27382767 44.61148346 163.27397369 45.8886261 163.27412415 C49.27455057 163.27354824 52.66041352 163.2685445 56.04632711 163.26155019 C59.58973095 163.25528472 63.13313567 163.25471033 66.67654419 163.25352478 C73.38059484 163.25042087 80.08462912 163.24222017 86.78867257 163.23217529 C94.42348884 163.22098493 102.05830591 163.21549634 109.69312835 163.21047986 C125.39308462 163.20003676 141.09302457 163.18245556 156.79296875 163.16015625 C156.99203827 162.33895294 157.19110779 161.51774963 157.39620972 160.67166138 C157.66104156 159.59294769 157.92587341 158.51423401 158.19873047 157.40283203 C158.45967499 156.33412872 158.72061951 155.26542542 158.98947144 154.16433716 C162.63539875 140.53264851 171.41452906 129.39883394 183.12109375 121.69140625 C197.98884833 113.17070479 213.88716893 110.73826061 230.54296875 114.72265625 C247.05066463 119.66278863 258.05687187 129.72061151 266.79296875 144.16015625 C274.20709029 158.65424174 274.60662588 174.87474803 270.1171875 190.328125 C265.71488287 203.90048769 256.04543977 215.07034257 243.79296875 222.16015625 C228.02275957 229.93188025 212.23437282 231.56478723 195.328125 226.48046875 C181.14170291 221.18211442 169.75313827 211.63773641 162.79296875 198.16015625 C160.00129018 191.88794336 157.85779248 185.94590173 156.79296875 179.16015625 C156.1335003 179.15868969 155.47403185 179.15722313 154.79457951 179.15571213 C138.67389063 179.11849854 122.55345023 179.05929337 106.43293858 178.97625351 C98.63684858 178.93661286 90.84085734 178.90414497 83.04467773 178.88916016 C76.24160128 178.8760653 69.4387435 178.84890396 62.63579029 178.80554318 C59.04081151 178.78310235 55.44610063 178.76723494 51.85104561 178.7682724 C16.50132756 178.76759902 16.50132756 178.76759902 0.10546875 170.59765625 C-0.58675781 170.26032471 -1.27898437 169.92299316 -1.9921875 169.57543945 C-6.88183436 167.08304048 -11.35546336 164.1872316 -15.70703125 160.84765625 C-16.23385498 160.44667725 -16.76067871 160.04569824 -17.3034668 159.63256836 C-22.90573834 155.05973284 -26.42783701 150.00139366 -31.20703125 144.16015625 C-31.53703125 176.17015625 -31.86703125 208.18015625 -32.20703125 241.16015625 C-29.23703125 241.49015625 -26.26703125 241.82015625 -23.20703125 242.16015625 C-8.99931007 246.30852597 2.95973284 255.89961053 10.80078125 268.34765625 C18.45297407 282.43537525 20.74143596 297.63676976 17.03515625 313.37890625 C11.91964686 330.05804611 2.34389851 342.41509876 -13.078125 350.703125 C-26.69006625 357.1409502 -42.73010914 358.74219263 -57.33203125 354.53515625 C-73.72359961 348.46498835 -84.79829535 338.85831648 -92.67578125 323.25 C-99.44030422 308.32478799 -99.67304851 292.64819819 -94.42578125 277.1875 C-88.36862082 262.1416688 -76.8652927 250.84224669 -62.14453125 244.28515625 C-56.84580614 242.04081546 -53.39503847 241.84771261 -47.20703125 241.16015625 C-47.20703125 194.96015625 -47.20703125 148.76015625 -47.20703125 101.16015625 C-50.17703125 100.83015625 -53.14703125 100.50015625 -56.20703125 100.16015625 C-70.12679564 96.09586414 -82.49147264 86.61521601 -89.9921875 74.20703125 C-97.80957822 59.22529966 -99.76823919 44.76737349 -96.20703125 28.16015625 C-93.7698057 20.40867951 -90.10568793 13.6191258 -85.20703125 7.16015625 C-84.43939453 6.12761719 -84.43939453 6.12761719 -83.65625 5.07421875 C-74.51141105 -6.3186355 -59.83815492 -12.86528335 -45.55078125 -14.6171875 C-28.5330834 -15.75037532 -13.11369017 -10.93194349 0 0 Z M-73.01953125 14.97265625 C-81.78721813 25.64276576 -84.30679466 37.59182517 -83.20703125 51.16015625 C-80.81082495 62.74635833 -74.46488132 72.79419514 -65.20703125 80.16015625 C-53.71633149 87.23015023 -42.54639014 89.91673903 -29.33203125 87.03515625 C-17.90495494 83.90942927 -8.66493892 78.12013068 -2.23046875 68.07421875 C4.91506805 55.45925872 6.66549792 44.19845086 2.84375 30.125 C1.15391056 25.35701438 -1.33625366 21.30173138 -4.20703125 17.16015625 C-4.82578125 16.25265625 -5.44453125 15.34515625 -6.08203125 14.41015625 C-13.47025818 6.58732773 -23.83348182 0.6666726 -34.67578125 -0.078125 C-50.0207477 -0.50384378 -62.27147367 3.50651723 -73.01953125 14.97265625 Z M180.30078125 143.8984375 C172.41265111 153.68992242 169.75763886 164.7507797 170.79296875 177.16015625 C173.58110455 190.84591995 180.37364585 200.53052124 191.54296875 208.73828125 C201.36856867 214.94751453 212.80456851 216.78759518 224.1484375 214.4765625 C235.8103624 211.18169274 246.14625186 204.80508737 252.5546875 194.26171875 C258.71064451 182.42677961 260.84555185 171.58936929 257.16796875 158.47265625 C253.19077202 146.81919171 245.77330758 137.49659194 234.79296875 131.78515625 C215.01365028 122.68666976 194.55280293 127.29595151 180.30078125 143.8984375 Z M-73.35546875 268.69140625 C-80.89627557 278.74581535 -85.35609049 290.5387437 -84.20703125 303.16015625 C-82.88154652 311.58088277 -80.03347798 318.1728071 -75.20703125 325.16015625 C-74.34078125 326.49046875 -74.34078125 326.49046875 -73.45703125 327.84765625 C-65.36775303 336.16163664 -54.45934503 342.12874389 -42.77587891 342.45288086 C-29.02804221 342.58429162 -18.36916618 338.82809942 -8.20703125 329.28125 C0.98139438 319.47894248 4.2604438 308.10969481 4.0390625 294.87890625 C3.22877794 282.63460627 -2.86346853 272.56291372 -11.65234375 264.203125 C-30.24725736 249.33288063 -56.98133188 251.17175363 -73.35546875 268.69140625 Z " fill="#D53961" transform="translate(195.20703125,84.83984375)"/>
</svg>
